<?xml version="1.0" encoding="utf-8"?>
<!-- Generator: Adobe Illustrator 28.0.0, SVG Export Plug-In . SVG Version: 6.00 Build 0)  -->
<svg version="1.1" xmlns="http://www.w3.org/2000/svg" xmlns:xlink="http://www.w3.org/1999/xlink" x="0px" y="0px"
	 viewBox="0 0 2834.65 2834.65" style="enable-background:new 0 0 2834.65 2834.65;" xml:space="preserve">
<style type="text/css">
	.st0{fill:#B98086;}
	.st1{fill:#FFEDD6;}
	.st2{fill:none;}
	.st3{fill:#FFEED9;}
	.st4{fill:none;stroke:#231F20;stroke-width:12.3575;}
	.st5{fill:#231F20;}
	.st6{fill:#F2D5BD;}
	.st7{fill:#B88086;}
	.st8{font-family:'Acuta-Fat';}
	.st9{font-size:108.7656px;}
</style>
<g id="Layer_1">
	<ellipse class="st0" cx="1415.6" cy="1483.72" rx="990.37" ry="1032.27"/>
	<ellipse class="st1" cx="1433.3" cy="1465.28" rx="839.07" ry="874.56"/>
	<path id="SVGID_x5F_1_x5F_" class="st2" d="M2320.42,1505.1c0,523.64-407.26,940.72-909.65,931.58S501.13,1995.64,501.13,1472
		s407.26-940.72,909.65-931.58C1913.16,549.56,2320.42,981.46,2320.42,1505.1z"/>
	<text>	<textPath  xlink:href="#SVGID_x5F_1_x5F_" startOffset="98.3363%">
	</textPath>
</text>
	
		<ellipse transform="matrix(0.9681 -0.2504 0.2504 0.9681 -325.411 402.5204)" class="st3" cx="1419.05" cy="1480" rx="940.19" ry="965.14"/>
	<g>
		<g>
			<path class="st4" d="M477.2,1484.73v-2.88c25.87-15.48,52.67-66.27,52.67-111.58c0-87.03-48.05-100.92-123.36-95.63
				l-146.45,10.28v46.75c7.85,10.96,17.55,21.06,31.88,27.97v349.54c-12.01,6.6-23.1,18.16-31.88,32.44v46.75l133.52-9.37
				c88.7-6.23,146.45-73.57,146.45-185.77C540.03,1529.94,519.24,1488.25,477.2,1484.73z M390.81,1351.98l6.47-0.45
				c19.4-1.36,30.96,14.37,30.96,43.14c0,35.24-7.39,83.23-26.8,84.59l-10.62,0.75V1351.98z M404.21,1699.14
				c-3.7,0.26-7.39-0.2-13.4-1.22v-138.81l4.62-0.32c38.81-2.72,42.96,14.96,42.96,60.27
				C438.39,1673.73,427.77,1697.49,404.21,1699.14z"/>
			<path class="st4" d="M795.52,1673.84c-3.7-35.7,1.38-114.45,1.38-179.9c0-92.78-41.58-116.47-104.41-112.06
				c-45.74,3.21-88.24,22.02-116.42,44.85c0.46,38.09,2.31,72.48,5.08,103.21l48.97-12.07c4.16-14.68,6.93-29.26,10.17-46.74
				c9.7-5,21.71-9.44,32.34-10.18c21.72-1.52,31.42,14.34,31.42,57.49v12.95c-78.54,5.51-138.14,34.87-138.14,142.75
				c0,54.66,12.47,102.69,47.12,100.26c22.18-1.56,52.67-21.68,76.23-60.01c9.7-15.79,13.86-23.99,22.18-44.71l1.85,1.31
				c-4.16,13.24-9.7,38.08-9.7,63.97c0,8.63,0,16.54,0.92,27.26c53.13-3.73,91.02-12.86,120.58-30.76v-48.19
				C812.62,1681.27,804.76,1678.22,795.52,1673.84z M704.04,1606.18c-14.32,40.56-30.03,68.99-36.5,69.45
				c-2.77,0.19-4.62-15.5-4.62-37.79c0-32.36,6.47-47.92,41.12-45.32V1606.18z"/>
			<path class="st4" d="M953.06,1662.78v-462.46c-31.88,2.24-98.41,10.5-127.51,16.14v47.47c9.7,8.67,18.02,13.12,30.03,18.75
				v468.93c50.36-3.53,97.02-13.28,127.97-31.28v-48.19C971.08,1670.14,963.22,1667.82,953.06,1662.78z"/>
			<path class="st4" d="M1052.85,1332.84c32.34-2.27,59.6-29.35,59.6-87.61c0-41.72-16.17-72.95-51.74-70.45
				c-36.96,2.59-59.14,37.95-59.14,86.86C1001.56,1313.43,1023.74,1334.89,1052.85,1332.84z"/>
			<path class="st4" d="M1112.44,1357.43c-38.81,2-105.8,10.3-127.05,16.11v47.47c7.39,8.83,17.1,14.62,29.57,18.78
				c0,0-0.46,266.14,0.46,300.6c50.82-3.57,96.56-12.53,127.51-30.53v-48.91c-12.48-2-20.33-4.33-30.5-8.65V1357.43z"/>
			<path class="st4" d="M1402.11,1487.42c11.55,10.7,23.56,17.76,36.5,22.61v110.76c-4.62,5.36-10.16,9.34-19.4,9.99
				c-36.5,2.56-51.28-61.13-51.28-151.75c0-130.9,7.86-194.74,53.59-197.95c13.4-0.94,27.72,0.93,39.27,6.59
				c3.23,21.35,10.16,48.91,18.94,67l48.51-3.4c2.31-39,4.16-101.7,4.16-144.14c-30.95-11.49-66.99-15.44-98.4-13.23
				c-117.81,8.27-167.71,108.86-167.71,301.62c0,148.16,39.27,228.11,142.3,220.88c39.74-2.79,98.41-27.77,127.05-58.54v-154.63
				c10.16-7.19,18.94-15.71,25.41-26.96v-53.94l-158.93,11.15V1487.42z"/>
			<path class="st4" d="M1845.62,1438.31v-133.06c-38.81,2.72-105.8,10.3-127.05,16.11v47.47c7.85,8.8,17.09,14.62,29.57,18.78
				v24.45c2.31,69.6-25.87,184.5-39.27,185.44c-10.16,0.71-10.62-23.71-10.62-39.53V1315.6c-38.81,2.72-105.8,10.3-127.05,16.11
				v47.47c6.93,8.14,17.09,14.62,29.57,18.78v181.24c0,74.08,14.78,121.23,55.9,118.34c59.14-4.15,81.31-61.09,103.03-139.57
				l3.24,1.93c-6.47,24.19-18.02,73.19-18.02,110.59v18.7c50.82-3.57,96.1-13.22,127.05-31.93v-47.47c-12.48-2-18.94-4.43-30.5-9.37
				C1843.77,1559.98,1845.62,1500.16,1845.62,1438.31z"/>
			<path class="st4" d="M2001.78,1295.01c-38.81,2-105.8,10.3-127.05,16.11v47.47c7.39,8.83,17.09,14.62,29.57,18.78
				c0,0-0.46,266.14,0.46,300.6c50.82-3.57,96.56-12.53,127.51-30.53v-48.91c-12.47-2-20.33-4.33-30.49-8.65V1295.01z"/>
			<path class="st4" d="M1942.18,1270.42c32.34-2.27,59.6-29.35,59.6-87.61c0-41.72-16.17-72.94-51.74-70.45
				c-36.96,2.59-59.14,37.95-59.14,86.86C1890.9,1251.01,1913.07,1272.47,1942.18,1270.42z"/>
			<path class="st4" d="M2303.92,1567.97v-462.46c-31.42,2.21-97.94,10.47-127.05,16.11v47.47c10.62,8.6,14.32,12.66,29.57,18.78
				v87.75l-10.17,0.71c-106.72,7.49-145.53,110.19-145.53,256.91c0,58.98,19.86,138.85,58.67,136.13
				c36.96-2.59,59.14-23.57,77.16-60.79c12.01-24.58,18.48-42.29,30.03-77.63l1.85,1.31c-6.46,28.5-11.09,61.19-11.09,99.31v25.17
				c51.28-3.6,97.02-14,127.05-31.93v-48.19C2321.93,1574.61,2314.54,1572.97,2303.92,1567.97z M2206.44,1433.12
				c0,33.8-37.89,144.35-47.59,145.03c-8.78,0.62-8.32-49.76-8.32-64.87c0-88.46-0.46-156.04,28.64-158.08
				c12.01-0.84,21.25,1.38,27.26,7.44V1433.12z"/>
			<path class="st4" d="M2494.26,1562.52c-27.72,1.95-46.2-17.61-46.2-74.43v-8.63l113.65-9.42
				c11.55-38.21,18.94-81.88,18.94-119.28c0-63.29-29.57-98.62-83.62-94.82c-89.17,6.26-146.92,84.39-146.92,231.83
				c0,121.55,41.12,161.81,120.12,156.27c43.43-3.05,79-26.4,106.26-56.36l-11.09-56.76
				C2543.23,1547.57,2517.82,1560.86,2494.26,1562.52z M2473,1333.86c9.7-0.68,12.01,13.54,12.01,28.64
				c0,16.54-4.16,37.69-8.32,49.49l-27.26,4.79C2450.36,1365.66,2456.37,1335.03,2473,1333.86z"/>
		</g>
		<g>
			<path class="st5" d="M477.2,1484.73v-2.88c25.87-15.48,52.67-66.27,52.67-111.58c0-87.03-48.05-100.92-123.36-95.63
				l-146.45,10.28v46.75c7.85,10.96,17.55,21.06,31.88,27.97v349.54c-12.01,6.6-23.1,18.16-31.88,32.44v46.75l133.52-9.37
				c88.7-6.23,146.45-73.57,146.45-185.77C540.03,1529.94,519.24,1488.25,477.2,1484.73z M390.81,1351.98l6.47-0.45
				c19.4-1.36,30.96,14.37,30.96,43.14c0,35.24-7.39,83.23-26.8,84.59l-10.62,0.75V1351.98z M404.21,1699.14
				c-3.7,0.26-7.39-0.2-13.4-1.22v-138.81l4.62-0.32c38.81-2.72,42.96,14.96,42.96,60.27
				C438.39,1673.73,427.77,1697.49,404.21,1699.14z"/>
			<path class="st5" d="M795.52,1673.84c-3.7-35.7,1.38-114.45,1.38-179.9c0-92.78-41.58-116.47-104.41-112.06
				c-45.74,3.21-88.24,22.02-116.42,44.85c0.46,38.09,2.31,72.48,5.08,103.21l48.97-12.07c4.16-14.68,6.93-29.26,10.17-46.74
				c9.7-5,21.71-9.44,32.34-10.18c21.72-1.52,31.42,14.34,31.42,57.49v12.95c-78.54,5.51-138.14,34.87-138.14,142.75
				c0,54.66,12.47,102.69,47.12,100.26c22.18-1.56,52.67-21.68,76.23-60.01c9.7-15.79,13.86-23.99,22.18-44.71l1.85,1.31
				c-4.16,13.24-9.7,38.08-9.7,63.97c0,8.63,0,16.54,0.92,27.26c53.13-3.73,91.02-12.86,120.58-30.76v-48.19
				C812.62,1681.27,804.76,1678.22,795.52,1673.84z M704.04,1606.18c-14.32,40.56-30.03,68.99-36.5,69.45
				c-2.77,0.19-4.62-15.5-4.62-37.79c0-32.36,6.47-47.92,41.12-45.32V1606.18z"/>
			<path class="st5" d="M953.06,1662.78v-462.46c-31.88,2.24-98.41,10.5-127.51,16.14v47.47c9.7,8.67,18.02,13.12,30.03,18.75
				v468.93c50.36-3.53,97.02-13.28,127.97-31.28v-48.19C971.08,1670.14,963.22,1667.82,953.06,1662.78z"/>
			<path class="st5" d="M1052.85,1332.84c32.34-2.27,59.6-29.35,59.6-87.61c0-41.72-16.17-72.95-51.74-70.45
				c-36.96,2.59-59.14,37.95-59.14,86.86C1001.56,1313.43,1023.74,1334.89,1052.85,1332.84z"/>
			<path class="st5" d="M1112.44,1357.43c-38.81,2-105.8,10.3-127.05,16.11v47.47c7.39,8.83,17.1,14.62,29.57,18.78
				c0,0-0.46,266.14,0.46,300.6c50.82-3.57,96.56-12.53,127.51-30.53v-48.91c-12.48-2-20.33-4.33-30.5-8.65V1357.43z"/>
			<path class="st5" d="M1402.11,1487.42c11.55,10.7,23.56,17.76,36.5,22.61v110.76c-4.62,5.36-10.16,9.34-19.4,9.99
				c-36.5,2.56-51.28-61.13-51.28-151.75c0-130.9,7.86-194.74,53.59-197.95c13.4-0.94,27.72,0.93,39.27,6.59
				c3.23,21.35,10.16,48.91,18.94,67l48.51-3.4c2.31-39,4.16-101.7,4.16-144.14c-30.95-11.49-66.99-15.44-98.4-13.23
				c-117.81,8.27-167.71,108.86-167.71,301.62c0,148.16,39.27,228.11,142.3,220.88c39.74-2.79,98.41-27.77,127.05-58.54v-154.63
				c10.16-7.19,18.94-15.71,25.41-26.96v-53.94l-158.93,11.15V1487.42z"/>
			<path class="st5" d="M1845.62,1438.31v-133.06c-38.81,2.72-105.8,10.3-127.05,16.11v47.47c7.85,8.8,17.09,14.62,29.57,18.78
				v24.45c2.31,69.6-25.87,184.5-39.27,185.44c-10.16,0.71-10.62-23.71-10.62-39.53V1315.6c-38.81,2.72-105.8,10.3-127.05,16.11
				v47.47c6.93,8.14,17.09,14.62,29.57,18.78v181.24c0,74.08,14.78,121.23,55.9,118.34c59.14-4.15,81.31-61.09,103.03-139.57
				l3.24,1.93c-6.47,24.19-18.02,73.19-18.02,110.59v18.7c50.82-3.57,96.1-13.22,127.05-31.93v-47.47c-12.48-2-18.94-4.43-30.5-9.37
				C1843.77,1559.98,1845.62,1500.16,1845.62,1438.31z"/>
			<path class="st5" d="M2001.78,1295.01c-38.81,2-105.8,10.3-127.05,16.11v47.47c7.39,8.83,17.09,14.62,29.57,18.78
				c0,0-0.46,266.14,0.46,300.6c50.82-3.57,96.56-12.53,127.51-30.53v-48.91c-12.47-2-20.33-4.33-30.49-8.65V1295.01z"/>
			<path class="st5" d="M1942.18,1270.42c32.34-2.27,59.6-29.35,59.6-87.61c0-41.72-16.17-72.94-51.74-70.45
				c-36.96,2.59-59.14,37.95-59.14,86.86C1890.9,1251.01,1913.07,1272.47,1942.18,1270.42z"/>
			<path class="st5" d="M2303.92,1567.97v-462.46c-31.42,2.21-97.94,10.47-127.05,16.11v47.47c10.62,8.6,14.32,12.66,29.57,18.78
				v87.75l-10.17,0.71c-106.72,7.49-145.53,110.19-145.53,256.91c0,58.98,19.86,138.85,58.67,136.13
				c36.96-2.59,59.14-23.57,77.16-60.79c12.01-24.58,18.48-42.29,30.03-77.63l1.85,1.31c-6.46,28.5-11.09,61.19-11.09,99.31v25.17
				c51.28-3.6,97.02-14,127.05-31.93v-48.19C2321.93,1574.61,2314.54,1572.97,2303.92,1567.97z M2206.44,1433.12
				c0,33.8-37.89,144.35-47.59,145.03c-8.78,0.62-8.32-49.76-8.32-64.87c0-88.46-0.46-156.04,28.64-158.08
				c12.01-0.84,21.25,1.38,27.26,7.44V1433.12z"/>
			<path class="st5" d="M2494.26,1562.52c-27.72,1.95-46.2-17.61-46.2-74.43v-8.63l113.65-9.42
				c11.55-38.21,18.94-81.88,18.94-119.28c0-63.29-29.57-98.62-83.62-94.82c-89.17,6.26-146.92,84.39-146.92,231.83
				c0,121.55,41.12,161.81,120.12,156.27c43.43-3.05,79-26.4,106.26-56.36l-11.09-56.76
				C2543.23,1547.57,2517.82,1560.86,2494.26,1562.52z M2473,1333.86c9.7-0.68,12.01,13.54,12.01,28.64
				c0,16.54-4.16,37.69-8.32,49.49l-27.26,4.79C2450.36,1365.66,2456.37,1335.03,2473,1333.86z"/>
		</g>
		<g>
			<g>
				<path class="st0" d="M531.67,1539.2v-2.88c25.87-15.48,52.67-66.27,52.67-111.58c0-87.03-48.05-100.92-123.36-95.63
					l-146.45,10.28v46.75c7.85,10.96,17.55,21.06,31.88,27.97v349.54c-12.01,6.6-23.1,18.16-31.88,32.44v46.75l133.52-9.37
					c88.7-6.23,146.45-73.57,146.45-185.77C594.5,1584.41,573.71,1542.72,531.67,1539.2z M445.28,1406.45l6.47-0.45
					c19.4-1.36,30.96,14.37,30.96,43.14c0,35.24-7.39,83.23-26.8,84.59l-10.62,0.75V1406.45z M458.68,1753.61
					c-3.7,0.26-7.39-0.2-13.4-1.22v-138.81l4.62-0.32c38.81-2.72,42.96,14.96,42.96,60.27
					C492.86,1728.2,482.24,1751.96,458.68,1753.61z"/>
				<path class="st0" d="M849.99,1728.3c-3.7-35.7,1.38-114.45,1.38-179.9c0-92.78-41.58-116.47-104.41-112.06
					c-45.74,3.21-88.24,22.02-116.42,44.85c0.46,38.09,2.31,72.48,5.08,103.21l48.97-12.07c4.16-14.68,6.93-29.26,10.17-46.74
					c9.7-5,21.71-9.44,32.34-10.18c21.72-1.52,31.42,14.34,31.42,57.49v12.95c-78.54,5.51-138.14,34.87-138.14,142.75
					c0,54.66,12.47,102.69,47.12,100.26c22.18-1.56,52.67-21.68,76.23-60.01c9.7-15.79,13.86-23.99,22.18-44.71l1.85,1.31
					c-4.16,13.24-9.7,38.08-9.7,63.97c0,8.63,0,16.54,0.92,27.26c53.13-3.73,91.02-12.86,120.58-30.76v-48.19
					C867.08,1735.74,859.23,1732.69,849.99,1728.3z M758.51,1660.65c-14.32,40.56-30.03,68.99-36.5,69.45
					c-2.77,0.19-4.62-15.5-4.62-37.79c0-32.36,6.47-47.92,41.12-45.32V1660.65z"/>
				<path class="st0" d="M1007.53,1717.25v-462.46c-31.88,2.24-98.41,10.5-127.51,16.14v47.47c9.7,8.67,18.02,13.12,30.03,18.75
					v468.93c50.36-3.53,97.02-13.28,127.97-31.28v-48.19C1025.55,1724.61,1017.69,1722.29,1007.53,1717.25z"/>
				<path class="st0" d="M1107.32,1387.31c32.34-2.27,59.6-29.35,59.6-87.61c0-41.72-16.17-72.95-51.74-70.45
					c-36.96,2.59-59.14,37.95-59.14,86.86C1056.03,1367.9,1078.21,1389.36,1107.32,1387.31z"/>
				<path class="st0" d="M1166.91,1411.9c-38.81,2-105.8,10.3-127.05,16.11v47.47c7.39,8.83,17.1,14.62,29.57,18.78
					c0,0-0.46,266.14,0.46,300.6c50.82-3.57,96.56-12.53,127.51-30.53v-48.91c-12.48-2-20.33-4.33-30.5-8.65V1411.9z"/>
				<path class="st0" d="M1456.58,1541.89c11.55,10.7,23.56,17.76,36.5,22.61v110.76c-4.62,5.36-10.16,9.34-19.4,9.99
					c-36.5,2.56-51.28-61.13-51.28-151.75c0-130.9,7.86-194.74,53.59-197.95c13.4-0.94,27.72,0.93,39.27,6.59
					c3.23,21.35,10.16,48.91,18.94,67l48.51-3.4c2.31-39,4.16-101.7,4.16-144.14c-30.95-11.49-66.99-15.44-98.4-13.23
					c-117.81,8.27-167.71,108.86-167.71,301.62c0,148.16,39.27,228.11,142.3,220.88c39.74-2.79,98.41-27.77,127.05-58.54v-154.63
					c10.16-7.19,18.94-15.71,25.41-26.96v-53.94l-158.93,11.15V1541.89z"/>
				<path class="st0" d="M1900.09,1492.78v-133.06c-38.81,2.72-105.8,10.3-127.05,16.11v47.47c7.85,8.8,17.09,14.62,29.57,18.78
					v24.45c2.31,69.6-25.87,184.5-39.27,185.44c-10.16,0.71-10.62-23.71-10.62-39.53v-242.38c-38.81,2.72-105.8,10.3-127.05,16.11
					v47.47c6.93,8.14,17.09,14.62,29.57,18.78v181.24c0,74.08,14.78,121.23,55.9,118.34c59.14-4.15,81.31-61.09,103.03-139.57
					l3.24,1.93c-6.47,24.19-18.02,73.19-18.02,110.59v18.7c50.82-3.57,96.1-13.22,127.05-31.93v-47.47
					c-12.48-2-18.94-4.43-30.5-9.37C1898.24,1614.45,1900.09,1554.63,1900.09,1492.78z"/>
				<path class="st0" d="M2056.24,1349.48c-38.81,2-105.8,10.3-127.05,16.11v47.47c7.39,8.83,17.09,14.62,29.57,18.78
					c0,0-0.46,266.14,0.46,300.6c50.82-3.57,96.56-12.53,127.51-30.53v-48.91c-12.47-2-20.33-4.33-30.49-8.65V1349.48z"/>
				<path class="st0" d="M1996.64,1324.89c32.34-2.27,59.6-29.35,59.6-87.61c0-41.72-16.17-72.94-51.74-70.45
					c-36.96,2.59-59.14,37.95-59.14,86.86C1945.36,1305.48,1967.54,1326.94,1996.64,1324.89z"/>
				<path class="st0" d="M2358.38,1622.44v-462.46c-31.42,2.2-97.94,10.47-127.05,16.11v47.47c10.62,8.6,14.32,12.66,29.57,18.78
					v87.75l-10.17,0.71c-106.72,7.49-145.53,110.19-145.53,256.91c0,58.98,19.86,138.85,58.67,136.13
					c36.96-2.59,59.14-23.57,77.16-60.79c12.01-24.58,18.48-42.29,30.03-77.63l1.85,1.31c-6.46,28.5-11.09,61.19-11.09,99.31v25.17
					c51.28-3.6,97.02-14,127.05-31.93v-48.19C2376.4,1629.08,2369.01,1627.44,2358.38,1622.44z M2260.9,1487.59
					c0,33.8-37.89,144.35-47.59,145.03c-8.78,0.62-8.32-49.76-8.32-64.87c0-88.46-0.46-156.04,28.64-158.08
					c12.01-0.84,21.25,1.38,27.26,7.44V1487.59z"/>
				<path class="st0" d="M2548.72,1616.99c-27.72,1.95-46.2-17.61-46.2-74.43v-8.63l113.65-9.42
					c11.55-38.21,18.94-81.88,18.94-119.28c0-63.29-29.57-98.62-83.62-94.82c-89.17,6.26-146.92,84.39-146.92,231.83
					c0,121.55,41.12,161.81,120.12,156.27c43.43-3.05,79-26.4,106.26-56.36l-11.09-56.76
					C2597.7,1602.04,2572.29,1615.33,2548.72,1616.99z M2527.47,1388.33c9.7-0.68,12.01,13.54,12.01,28.64
					c0,16.54-4.16,37.69-8.32,49.49l-27.26,4.79C2504.83,1420.13,2510.84,1389.5,2527.47,1388.33z"/>
			</g>
			<g>
				<path class="st0" d="M523.89,1531.41v-2.88c25.87-15.48,52.67-66.27,52.67-111.58c0-87.03-48.05-100.92-123.36-95.63
					l-146.45,10.28v46.75c7.85,10.96,17.55,21.06,31.88,27.97v349.54c-12.01,6.6-23.1,18.16-31.88,32.44v46.75l133.52-9.37
					c88.7-6.23,146.45-73.57,146.45-185.77C586.72,1576.63,565.93,1534.94,523.89,1531.41z M437.5,1398.67l6.47-0.45
					c19.4-1.36,30.96,14.37,30.96,43.14c0,35.24-7.39,83.23-26.8,84.59l-10.62,0.75V1398.67z M450.9,1745.83
					c-3.7,0.26-7.39-0.2-13.4-1.22V1605.8l4.62-0.32c38.81-2.72,42.96,14.96,42.96,60.27
					C485.08,1720.42,474.46,1744.18,450.9,1745.83z"/>
				<path class="st0" d="M842.21,1720.52c-3.7-35.7,1.38-114.45,1.38-179.9c0-92.78-41.58-116.47-104.41-112.06
					c-45.74,3.21-88.24,22.02-116.42,44.85c0.46,38.09,2.31,72.48,5.08,103.21l48.97-12.07c4.16-14.68,6.93-29.26,10.17-46.74
					c9.7-5,21.71-9.43,32.34-10.18c21.72-1.52,31.42,14.34,31.42,57.49v12.95c-78.54,5.51-138.14,34.87-138.14,142.75
					c0,54.66,12.47,102.69,47.12,100.26c22.18-1.56,52.67-21.68,76.23-60.01c9.7-15.79,13.86-23.99,22.18-44.71l1.85,1.31
					c-4.16,13.24-9.7,38.08-9.7,63.97c0,8.63,0,16.54,0.92,27.26c53.13-3.73,91.02-12.86,120.58-30.76v-48.19
					C859.3,1727.95,851.45,1724.91,842.21,1720.52z M750.73,1652.86c-14.32,40.56-30.03,68.99-36.5,69.45
					c-2.77,0.19-4.62-15.5-4.62-37.79c0-32.36,6.47-47.92,41.12-45.32V1652.86z"/>
				<path class="st0" d="M999.75,1709.47v-462.46c-31.88,2.24-98.41,10.5-127.51,16.14v47.47c9.7,8.67,18.02,13.12,30.03,18.75
					v468.93c50.36-3.53,97.02-13.28,127.97-31.28v-48.19C1017.77,1716.83,1009.91,1714.51,999.75,1709.47z"/>
				<path class="st0" d="M1099.54,1379.53c32.34-2.27,59.6-29.35,59.6-87.61c0-41.72-16.17-72.95-51.74-70.45
					c-36.96,2.59-59.14,37.95-59.14,86.86C1048.25,1360.12,1070.43,1381.58,1099.54,1379.53z"/>
				<path class="st0" d="M1159.13,1404.12c-38.81,2-105.8,10.3-127.05,16.11v47.47c7.39,8.83,17.1,14.62,29.57,18.78
					c0,0-0.46,266.14,0.46,300.6c50.82-3.57,96.56-12.53,127.51-30.53v-48.91c-12.48-2-20.33-4.33-30.5-8.65V1404.12z"/>
				<path class="st0" d="M1448.8,1534.1c11.55,10.7,23.56,17.76,36.5,22.61v110.76c-4.62,5.36-10.16,9.34-19.4,9.99
					c-36.5,2.56-51.28-61.13-51.28-151.75c0-130.9,7.86-194.74,53.59-197.95c13.4-0.94,27.72,0.93,39.27,6.59
					c3.23,21.35,10.16,48.91,18.94,67l48.51-3.4c2.31-39,4.16-101.7,4.16-144.14c-30.95-11.49-66.99-15.44-98.4-13.23
					c-117.81,8.27-167.71,108.86-167.71,301.62c0,148.16,39.27,228.11,142.3,220.88c39.74-2.79,98.41-27.77,127.05-58.54v-154.63
					c10.16-7.19,18.94-15.71,25.41-26.96v-53.94l-158.93,11.15V1534.1z"/>
				<path class="st0" d="M1892.31,1485v-133.06c-38.81,2.72-105.8,10.3-127.05,16.11v47.47c7.85,8.8,17.09,14.62,29.57,18.78v24.45
					c2.31,69.6-25.87,184.5-39.27,185.44c-10.16,0.71-10.62-23.71-10.62-39.53v-242.38c-38.81,2.72-105.8,10.3-127.05,16.11v47.47
					c6.93,8.14,17.09,14.62,29.57,18.78v181.24c0,74.08,14.78,121.23,55.9,118.34c59.14-4.15,81.31-61.09,103.03-139.57l3.24,1.93
					c-6.47,24.19-18.02,73.19-18.02,110.59v18.7c50.82-3.57,96.1-13.22,127.05-31.93v-47.47c-12.48-2-18.94-4.43-30.5-9.37
					C1890.46,1606.67,1892.31,1546.85,1892.31,1485z"/>
				<path class="st0" d="M2048.46,1341.7c-38.81,2-105.8,10.3-127.05,16.11v47.47c7.39,8.83,17.09,14.62,29.57,18.78
					c0,0-0.46,266.14,0.46,300.6c50.82-3.57,96.56-12.53,127.51-30.53v-48.91c-12.47-2-20.33-4.33-30.49-8.65V1341.7z"/>
				<path class="st0" d="M1988.86,1317.11c32.34-2.27,59.6-29.35,59.6-87.61c0-41.72-16.17-72.94-51.74-70.45
					c-36.96,2.59-59.14,37.95-59.14,86.86C1937.58,1297.7,1959.76,1319.16,1988.86,1317.11z"/>
				<path class="st0" d="M2350.6,1614.65v-462.46c-31.42,2.2-97.94,10.47-127.05,16.11v47.47c10.62,8.6,14.32,12.66,29.57,18.78
					v87.75l-10.17,0.71c-106.72,7.49-145.53,110.19-145.53,256.91c0,58.98,19.86,138.85,58.67,136.13
					c36.96-2.59,59.14-23.57,77.16-60.79c12.01-24.58,18.48-42.29,30.03-77.63l1.85,1.31c-6.46,28.5-11.09,61.19-11.09,99.31v25.17
					c51.28-3.6,97.02-14,127.05-31.93v-48.19C2368.62,1621.3,2361.23,1619.66,2350.6,1614.65z M2253.12,1479.81
					c0,33.8-37.89,144.35-47.59,145.03c-8.78,0.62-8.32-49.76-8.32-64.87c0-88.46-0.46-156.04,28.64-158.08
					c12.01-0.84,21.25,1.38,27.26,7.44V1479.81z"/>
				<path class="st0" d="M2540.94,1609.21c-27.72,1.95-46.2-17.61-46.2-74.43v-8.63l113.65-9.42
					c11.55-38.21,18.94-81.88,18.94-119.28c0-63.29-29.57-98.62-83.62-94.82c-89.17,6.26-146.92,84.39-146.92,231.83
					c0,121.55,41.12,161.81,120.12,156.27c43.43-3.05,79-26.4,106.26-56.36l-11.09-56.76
					C2589.92,1594.26,2564.51,1607.55,2540.94,1609.21z M2519.69,1380.55c9.7-0.68,12.01,13.54,12.01,28.64
					c0,16.54-4.16,37.69-8.32,49.49l-27.26,4.79C2497.05,1412.34,2503.06,1381.71,2519.69,1380.55z"/>
			</g>
			<g>
				<path class="st0" d="M516.11,1523.63v-2.88c25.87-15.48,52.67-66.27,52.67-111.58c0-87.03-48.05-100.92-123.36-95.63
					l-146.45,10.28v46.75c7.85,10.96,17.55,21.06,31.88,27.97v349.54c-12.01,6.6-23.1,18.16-31.88,32.44v46.75l133.52-9.37
					c88.7-6.23,146.45-73.57,146.45-185.77C578.94,1568.85,558.15,1527.16,516.11,1523.63z M429.71,1390.89l6.47-0.45
					c19.4-1.36,30.96,14.37,30.96,43.14c0,35.24-7.39,83.23-26.8,84.59l-10.62,0.75V1390.89z M443.11,1738.05
					c-3.7,0.26-7.39-0.2-13.4-1.22v-138.81l4.62-0.32c38.81-2.72,42.96,14.96,42.96,60.27
					C477.3,1712.63,466.67,1736.4,443.11,1738.05z"/>
				<path class="st0" d="M834.43,1712.74c-3.7-35.7,1.38-114.45,1.38-179.9c0-92.78-41.58-116.47-104.41-112.06
					c-45.74,3.21-88.24,22.02-116.42,44.85c0.46,38.09,2.31,72.48,5.08,103.21l48.97-12.07c4.16-14.68,6.93-29.26,10.17-46.74
					c9.7-5,21.71-9.44,32.34-10.18c21.72-1.52,31.42,14.34,31.42,57.49v12.95c-78.54,5.51-138.14,34.87-138.14,142.75
					c0,54.66,12.47,102.69,47.12,100.26c22.18-1.56,52.67-21.68,76.23-60.01c9.7-15.79,13.86-23.99,22.18-44.71l1.85,1.31
					c-4.16,13.24-9.7,38.08-9.7,63.97c0,8.63,0,16.54,0.92,27.26c53.13-3.73,91.02-12.86,120.58-30.76v-48.19
					C851.52,1720.17,843.67,1717.13,834.43,1712.74z M742.95,1645.08c-14.32,40.56-30.03,68.99-36.5,69.45
					c-2.77,0.19-4.62-15.5-4.62-37.79c0-32.36,6.47-47.92,41.12-45.32V1645.08z"/>
				<path class="st0" d="M991.97,1701.68v-462.46c-31.88,2.24-98.41,10.5-127.51,16.14v47.47c9.7,8.67,18.02,13.12,30.03,18.75
					v468.93c50.36-3.53,97.02-13.28,127.97-31.28v-48.19C1009.99,1709.05,1002.13,1706.72,991.97,1701.68z"/>
				<path class="st0" d="M1091.75,1371.75c32.34-2.27,59.6-29.35,59.6-87.61c0-41.72-16.17-72.95-51.74-70.45
					c-36.96,2.59-59.14,37.95-59.14,86.86C1040.47,1352.34,1062.65,1373.79,1091.75,1371.75z"/>
				<path class="st0" d="M1151.35,1396.34c-38.81,2-105.8,10.3-127.05,16.11v47.47c7.39,8.83,17.1,14.62,29.57,18.78
					c0,0-0.46,266.14,0.46,300.6c50.82-3.57,96.56-12.53,127.51-30.53v-48.91c-12.48-2-20.33-4.33-30.5-8.65V1396.34z"/>
				<path class="st0" d="M1441.02,1526.32c11.55,10.7,23.56,17.76,36.5,22.61v110.76c-4.62,5.36-10.16,9.34-19.4,9.99
					c-36.5,2.56-51.28-61.13-51.28-151.75c0-130.9,7.86-194.74,53.59-197.95c13.4-0.94,27.72,0.93,39.27,6.59
					c3.23,21.35,10.16,48.91,18.94,67l48.51-3.4c2.31-39,4.16-101.7,4.16-144.14c-30.95-11.49-66.99-15.44-98.4-13.23
					c-117.81,8.27-167.71,108.86-167.71,301.62c0,148.16,39.27,228.11,142.3,220.88c39.74-2.79,98.41-27.77,127.05-58.54v-154.63
					c10.16-7.19,18.94-15.71,25.41-26.96v-53.94l-158.93,11.15V1526.32z"/>
				<path class="st0" d="M1884.53,1477.21v-133.06c-38.81,2.72-105.8,10.3-127.05,16.11v47.47c7.85,8.8,17.09,14.62,29.57,18.78
					v24.45c2.31,69.6-25.87,184.5-39.27,185.44c-10.16,0.71-10.62-23.71-10.62-39.53V1354.5c-38.81,2.72-105.8,10.3-127.05,16.11
					v47.47c6.93,8.14,17.09,14.62,29.57,18.78v181.24c0,74.08,14.78,121.23,55.9,118.34c59.14-4.15,81.31-61.09,103.03-139.57
					l3.24,1.93c-6.47,24.19-18.02,73.19-18.02,110.59v18.7c50.82-3.57,96.1-13.22,127.05-31.93v-47.47
					c-12.48-2-18.94-4.43-30.5-9.37C1882.68,1598.89,1884.53,1539.07,1884.53,1477.21z"/>
				<path class="st0" d="M2040.68,1333.92c-38.81,2-105.8,10.3-127.05,16.11v47.47c7.39,8.83,17.09,14.62,29.57,18.78
					c0,0-0.46,266.14,0.46,300.6c50.82-3.57,96.56-12.53,127.51-30.53v-48.91c-12.47-2-20.33-4.33-30.49-8.65V1333.92z"/>
				<path class="st0" d="M1981.08,1309.33c32.34-2.27,59.6-29.35,59.6-87.61c0-41.72-16.17-72.94-51.74-70.45
					c-36.96,2.59-59.14,37.95-59.14,86.86C1929.8,1289.92,1951.98,1311.37,1981.08,1309.33z"/>
				<path class="st0" d="M2342.82,1606.87v-462.46c-31.42,2.21-97.94,10.47-127.05,16.11v47.47c10.62,8.6,14.32,12.66,29.57,18.78
					v87.75l-10.17,0.71c-106.72,7.49-145.53,110.19-145.53,256.91c0,58.98,19.86,138.85,58.67,136.13
					c36.96-2.59,59.14-23.57,77.16-60.79c12.01-24.58,18.48-42.29,30.03-77.63l1.85,1.31c-6.46,28.5-11.09,61.19-11.09,99.31v25.17
					c51.28-3.6,97.02-14,127.05-31.93v-48.19C2360.84,1613.52,2353.45,1611.88,2342.82,1606.87z M2245.34,1472.03
					c0,33.8-37.89,144.35-47.59,145.03c-8.78,0.62-8.32-49.76-8.32-64.87c0-88.46-0.46-156.04,28.64-158.08
					c12.01-0.84,21.25,1.38,27.26,7.44V1472.03z"/>
				<path class="st0" d="M2533.16,1601.42c-27.72,1.95-46.2-17.61-46.2-74.43v-8.63l113.65-9.42
					c11.55-38.21,18.94-81.88,18.94-119.28c0-63.29-29.57-98.62-83.62-94.82c-89.17,6.26-146.92,84.39-146.92,231.83
					c0,121.55,41.12,161.81,120.12,156.27c43.43-3.05,79-26.4,106.26-56.36l-11.09-56.76
					C2582.13,1586.48,2556.73,1599.77,2533.16,1601.42z M2511.91,1372.77c9.7-0.68,12.01,13.54,12.01,28.64
					c0,16.54-4.16,37.69-8.32,49.49l-27.26,4.79C2489.27,1404.56,2495.28,1373.93,2511.91,1372.77z"/>
			</g>
			<g>
				<path class="st0" d="M508.33,1515.85v-2.88C534.2,1497.5,561,1446.71,561,1401.4c0-87.03-48.05-100.92-123.36-95.63
					l-146.45,10.28v46.75c7.85,10.96,17.55,21.06,31.88,27.97v349.54c-12.01,6.6-23.1,18.16-31.88,32.44v46.75l133.52-9.37
					c88.7-6.23,146.45-73.57,146.45-185.77C571.16,1561.07,550.37,1519.38,508.33,1515.85z M421.93,1383.11l6.47-0.45
					c19.4-1.36,30.96,14.37,30.96,43.14c0,35.24-7.39,83.23-26.8,84.59l-10.62,0.75V1383.11z M435.33,1730.27
					c-3.7,0.26-7.39-0.2-13.4-1.22v-138.81l4.62-0.32c38.81-2.72,42.96,14.96,42.96,60.27
					C469.52,1704.85,458.89,1728.61,435.33,1730.27z"/>
				<path class="st0" d="M826.65,1704.96c-3.7-35.7,1.38-114.45,1.38-179.9c0-92.78-41.58-116.47-104.41-112.06
					c-45.74,3.21-88.24,22.02-116.42,44.85c0.46,38.09,2.31,72.48,5.08,103.21l48.97-12.07c4.16-14.68,6.93-29.26,10.17-46.74
					c9.7-5,21.71-9.43,32.34-10.18c21.72-1.52,31.42,14.34,31.42,57.49v12.95c-78.54,5.51-138.14,34.87-138.14,142.75
					c0,54.66,12.47,102.69,47.12,100.26c22.18-1.56,52.67-21.68,76.23-60.01c9.7-15.79,13.86-23.99,22.18-44.71l1.85,1.31
					c-4.16,13.24-9.7,38.08-9.7,63.97c0,8.63,0,16.54,0.92,27.26c53.13-3.73,91.02-12.86,120.58-30.76v-48.19
					C843.74,1712.39,835.89,1709.35,826.65,1704.96z M735.17,1637.3c-14.32,40.56-30.03,68.99-36.5,69.45
					c-2.77,0.19-4.62-15.5-4.62-37.79c0-32.36,6.47-47.92,41.12-45.32V1637.3z"/>
				<path class="st0" d="M984.19,1693.9v-462.46c-31.88,2.24-98.41,10.5-127.51,16.14v47.47c9.7,8.67,18.02,13.12,30.03,18.75
					v468.93c50.36-3.53,97.02-13.28,127.97-31.28v-48.19C1002.2,1701.27,994.35,1698.94,984.19,1693.9z"/>
				<path class="st0" d="M1083.97,1363.97c32.34-2.27,59.6-29.35,59.6-87.61c0-41.72-16.17-72.95-51.74-70.45
					c-36.96,2.59-59.14,37.95-59.14,86.86C1032.69,1344.55,1054.86,1366.01,1083.97,1363.97z"/>
				<path class="st0" d="M1143.57,1388.56c-38.81,2-105.8,10.3-127.05,16.11v47.47c7.39,8.83,17.1,14.62,29.57,18.78
					c0,0-0.46,266.14,0.46,300.6c50.82-3.57,96.56-12.53,127.51-30.53v-48.91c-12.48-2-20.33-4.33-30.5-8.65V1388.56z"/>
				<path class="st0" d="M1433.24,1518.54c11.55,10.7,23.56,17.76,36.5,22.61v110.76c-4.62,5.36-10.16,9.34-19.4,9.99
					c-36.5,2.56-51.28-61.13-51.28-151.75c0-130.9,7.86-194.74,53.59-197.95c13.4-0.94,27.72,0.93,39.27,6.59
					c3.23,21.35,10.16,48.91,18.94,67l48.51-3.4c2.31-39,4.16-101.7,4.16-144.14c-30.95-11.49-66.99-15.44-98.4-13.23
					c-117.81,8.27-167.71,108.86-167.71,301.62c0,148.16,39.27,228.11,142.3,220.88c39.74-2.79,98.41-27.77,127.05-58.54v-154.63
					c10.16-7.19,18.94-15.71,25.41-26.96v-53.94l-158.93,11.15V1518.54z"/>
				<path class="st0" d="M1876.74,1469.43v-133.06c-38.81,2.72-105.8,10.3-127.05,16.11v47.47c7.85,8.8,17.09,14.62,29.57,18.78
					v24.45c2.31,69.6-25.87,184.5-39.27,185.44c-10.16,0.71-10.62-23.71-10.62-39.53v-242.38c-38.81,2.72-105.8,10.3-127.05,16.11
					v47.47c6.93,8.14,17.09,14.62,29.57,18.78v181.24c0,74.08,14.78,121.23,55.9,118.34c59.14-4.15,81.31-61.09,103.03-139.57
					l3.24,1.93c-6.47,24.19-18.02,73.19-18.02,110.59v18.7c50.82-3.57,96.1-13.22,127.05-31.93v-47.47
					c-12.48-2-18.94-4.43-30.5-9.37C1874.9,1591.11,1876.74,1531.29,1876.74,1469.43z"/>
				<path class="st0" d="M2032.9,1326.14c-38.81,2-105.8,10.3-127.05,16.11v47.47c7.39,8.83,17.09,14.62,29.57,18.78
					c0,0-0.46,266.14,0.46,300.6c50.82-3.57,96.56-12.53,127.51-30.53v-48.91c-12.47-2-20.33-4.33-30.49-8.65V1326.14z"/>
				<path class="st0" d="M1973.3,1301.55c32.34-2.27,59.6-29.35,59.6-87.61c0-41.72-16.17-72.94-51.74-70.45
					c-36.96,2.59-59.14,37.95-59.14,86.86C1922.02,1282.13,1944.2,1303.59,1973.3,1301.55z"/>
				<path class="st0" d="M2335.04,1599.09v-462.46c-31.42,2.2-97.94,10.47-127.05,16.11v47.47c10.62,8.6,14.32,12.66,29.57,18.78
					v87.75l-10.17,0.71c-106.72,7.49-145.53,110.19-145.53,256.91c0,58.98,19.86,138.85,58.67,136.13
					c36.96-2.59,59.14-23.57,77.16-60.79c12.01-24.58,18.48-42.29,30.03-77.63l1.85,1.31c-6.46,28.5-11.09,61.19-11.09,99.31v25.17
					c51.28-3.6,97.02-14,127.05-31.93v-48.19C2353.06,1605.74,2345.66,1604.1,2335.04,1599.09z M2237.56,1464.25
					c0,33.8-37.89,144.35-47.59,145.03c-8.78,0.62-8.32-49.76-8.32-64.87c0-88.46-0.46-156.04,28.64-158.08
					c12.01-0.84,21.25,1.38,27.26,7.44V1464.25z"/>
				<path class="st0" d="M2525.38,1593.64c-27.72,1.95-46.2-17.61-46.2-74.43v-8.63l113.65-9.42
					c11.55-38.21,18.94-81.88,18.94-119.28c0-63.29-29.57-98.62-83.62-94.82c-89.17,6.26-146.92,84.39-146.92,231.83
					c0,121.55,41.12,161.81,120.12,156.27c43.43-3.05,79-26.4,106.26-56.36l-11.09-56.76
					C2574.35,1578.7,2548.94,1591.99,2525.38,1593.64z M2504.13,1364.98c9.7-0.68,12.01,13.54,12.01,28.64
					c0,16.54-4.16,37.69-8.32,49.49l-27.26,4.79C2481.49,1396.78,2487.5,1366.15,2504.13,1364.98z"/>
			</g>
			<g>
				<path class="st0" d="M500.54,1508.07v-2.88c25.87-15.48,52.67-66.27,52.67-111.58c0-87.03-48.05-100.92-123.36-95.63
					l-146.45,10.28v46.75c7.85,10.96,17.55,21.06,31.88,27.97v349.54c-12.01,6.6-23.1,18.16-31.88,32.44v46.75l133.52-9.37
					c88.7-6.23,146.45-73.57,146.45-185.77C563.38,1553.29,542.59,1511.59,500.54,1508.07z M414.15,1375.33l6.47-0.45
					c19.4-1.36,30.96,14.37,30.96,43.14c0,35.24-7.39,83.23-26.8,84.59l-10.62,0.75V1375.33z M427.55,1722.49
					c-3.7,0.26-7.39-0.2-13.4-1.22v-138.81l4.62-0.32c38.81-2.72,42.96,14.96,42.96,60.27
					C461.74,1697.07,451.11,1720.83,427.55,1722.49z"/>
				<path class="st0" d="M818.87,1697.18c-3.7-35.7,1.38-114.45,1.38-179.9c0-92.78-41.58-116.47-104.41-112.06
					c-45.74,3.21-88.24,22.02-116.42,44.85c0.46,38.09,2.31,72.48,5.08,103.21l48.97-12.07c4.16-14.68,6.93-29.26,10.17-46.74
					c9.7-5,21.71-9.44,32.34-10.18c21.72-1.52,31.42,14.34,31.42,57.49v12.95c-78.54,5.51-138.14,34.87-138.14,142.75
					c0,54.66,12.47,102.69,47.12,100.26c22.18-1.56,52.67-21.68,76.23-60.01c9.7-15.79,13.86-23.99,22.18-44.71l1.85,1.31
					c-4.16,13.24-9.7,38.08-9.7,63.97c0,8.63,0,16.54,0.92,27.26c53.13-3.73,91.02-12.86,120.58-30.76v-48.19
					C835.96,1704.61,828.11,1701.57,818.87,1697.18z M727.39,1629.52c-14.32,40.56-30.03,68.99-36.5,69.45
					c-2.77,0.19-4.62-15.5-4.62-37.79c0-32.36,6.47-47.92,41.12-45.32V1629.52z"/>
				<path class="st0" d="M976.41,1686.12v-462.46c-31.88,2.24-98.41,10.5-127.51,16.14v47.47c9.7,8.67,18.02,13.12,30.03,18.75
					v468.93c50.36-3.53,97.02-13.28,127.97-31.28v-48.19C994.42,1693.49,986.57,1691.16,976.41,1686.12z"/>
				<path class="st0" d="M1076.19,1356.19c32.34-2.27,59.6-29.35,59.6-87.61c0-41.72-16.17-72.95-51.74-70.45
					c-36.96,2.59-59.14,37.95-59.14,86.86C1024.91,1336.77,1047.08,1358.23,1076.19,1356.19z"/>
				<path class="st0" d="M1135.79,1380.78c-38.81,2-105.8,10.3-127.05,16.11v47.47c7.39,8.83,17.1,14.62,29.57,18.78
					c0,0-0.46,266.14,0.46,300.6c50.82-3.57,96.56-12.53,127.51-30.53v-48.91c-12.48-2-20.33-4.33-30.5-8.65V1380.78z"/>
				<path class="st0" d="M1425.46,1510.76c11.55,10.7,23.56,17.76,36.5,22.61v110.76c-4.62,5.36-10.16,9.34-19.4,9.99
					c-36.5,2.56-51.28-61.13-51.28-151.75c0-130.9,7.86-194.74,53.59-197.95c13.4-0.94,27.72,0.93,39.27,6.59
					c3.23,21.35,10.16,48.91,18.94,67l48.51-3.4c2.31-39,4.16-101.7,4.16-144.14c-30.95-11.49-66.99-15.44-98.4-13.23
					c-117.81,8.27-167.71,108.86-167.71,301.62c0,148.16,39.27,228.11,142.3,220.88c39.74-2.79,98.41-27.77,127.05-58.54v-154.63
					c10.16-7.19,18.94-15.71,25.41-26.96v-53.94l-158.93,11.15V1510.76z"/>
				<path class="st0" d="M1868.96,1461.65V1328.6c-38.81,2.72-105.8,10.3-127.05,16.11v47.47c7.85,8.8,17.09,14.62,29.57,18.78
					v24.45c2.31,69.6-25.87,184.5-39.27,185.44c-10.16,0.71-10.62-23.71-10.62-39.53v-242.38c-38.81,2.72-105.8,10.3-127.05,16.11
					v47.47c6.93,8.14,17.09,14.62,29.57,18.78v181.24c0,74.08,14.78,121.23,55.9,118.34c59.14-4.15,81.31-61.09,103.03-139.57
					l3.24,1.93c-6.47,24.19-18.02,73.19-18.02,110.59v18.7c50.82-3.57,96.1-13.22,127.05-31.93v-47.47
					c-12.48-2-18.94-4.43-30.5-9.37C1867.12,1583.33,1868.96,1523.5,1868.96,1461.65z"/>
				<path class="st0" d="M2025.12,1318.36c-38.81,2-105.8,10.3-127.05,16.11v47.47c7.39,8.83,17.09,14.62,29.57,18.78
					c0,0-0.46,266.14,0.46,300.6c50.82-3.57,96.56-12.53,127.51-30.53v-48.91c-12.47-2-20.33-4.33-30.49-8.65V1318.36z"/>
				<path class="st0" d="M1965.52,1293.77c32.34-2.27,59.6-29.35,59.6-87.61c0-41.72-16.17-72.94-51.74-70.45
					c-36.96,2.59-59.14,37.95-59.14,86.86C1914.24,1274.35,1936.42,1295.81,1965.52,1293.77z"/>
				<path class="st0" d="M2327.26,1591.31v-462.46c-31.42,2.2-97.94,10.47-127.05,16.11v47.47c10.62,8.6,14.32,12.66,29.57,18.78
					v87.75l-10.17,0.71c-106.72,7.49-145.53,110.19-145.53,256.91c0,58.98,19.86,138.85,58.67,136.13
					c36.96-2.59,59.14-23.57,77.16-60.79c12.01-24.58,18.48-42.29,30.03-77.63l1.85,1.31c-6.46,28.5-11.09,61.19-11.09,99.31v25.17
					c51.28-3.6,97.02-14,127.05-31.93v-48.19C2345.28,1597.96,2337.88,1596.32,2327.26,1591.31z M2229.78,1456.47
					c0,33.8-37.89,144.35-47.59,145.03c-8.78,0.62-8.32-49.76-8.32-64.87c0-88.46-0.46-156.04,28.64-158.08
					c12.01-0.84,21.25,1.38,27.26,7.44V1456.47z"/>
				<path class="st0" d="M2517.6,1585.86c-27.72,1.95-46.2-17.61-46.2-74.43v-8.63l113.65-9.42
					c11.55-38.21,18.94-81.88,18.94-119.28c0-63.29-29.57-98.62-83.62-94.82c-89.17,6.26-146.92,84.39-146.92,231.83
					c0,121.55,41.12,161.81,120.12,156.27c43.43-3.05,79-26.4,106.26-56.36l-11.09-56.76
					C2566.57,1570.92,2541.16,1584.21,2517.6,1585.86z M2496.35,1357.2c9.7-0.68,12.01,13.54,12.01,28.64
					c0,16.54-4.16,37.69-8.32,49.49l-27.26,4.79C2473.71,1389,2479.72,1358.37,2496.35,1357.2z"/>
			</g>
			<g>
				<path class="st0" d="M492.76,1500.29v-2.88c25.87-15.48,52.67-66.27,52.67-111.58c0-87.03-48.05-100.92-123.36-95.63
					l-146.45,10.28v46.75c7.85,10.96,17.55,21.06,31.88,27.97v349.54c-12.01,6.6-23.1,18.16-31.88,32.44v46.75l133.52-9.37
					c88.7-6.23,146.45-73.57,146.45-185.77C555.59,1545.51,534.81,1503.81,492.76,1500.29z M406.37,1367.54l6.47-0.45
					c19.4-1.36,30.96,14.37,30.96,43.14c0,35.24-7.39,83.23-26.8,84.59l-10.62,0.75V1367.54z M419.77,1714.71
					c-3.7,0.26-7.39-0.2-13.4-1.22v-138.81l4.62-0.32c38.81-2.72,42.96,14.96,42.96,60.27
					C453.95,1689.29,443.33,1713.05,419.77,1714.71z"/>
				<path class="st0" d="M811.09,1689.4c-3.7-35.7,1.38-114.45,1.38-179.9c0-92.78-41.58-116.47-104.41-112.06
					c-45.74,3.21-88.24,22.02-116.42,44.85c0.46,38.09,2.31,72.48,5.08,103.21l48.97-12.07c4.16-14.68,6.93-29.26,10.17-46.74
					c9.7-5,21.71-9.44,32.34-10.18c21.72-1.52,31.42,14.34,31.42,57.49v12.95c-78.54,5.51-138.14,34.87-138.14,142.75
					c0,54.66,12.47,102.69,47.12,100.26c22.18-1.56,52.67-21.68,76.23-60.01c9.7-15.79,13.86-23.99,22.18-44.71l1.85,1.31
					c-4.16,13.24-9.7,38.08-9.7,63.97c0,8.63,0,16.54,0.92,27.26c53.13-3.73,91.02-12.86,120.58-30.76v-48.19
					C828.18,1696.83,820.33,1693.78,811.09,1689.4z M719.61,1621.74c-14.32,40.56-30.03,68.99-36.5,69.45
					c-2.77,0.19-4.62-15.5-4.62-37.79c0-32.36,6.47-47.92,41.12-45.32V1621.74z"/>
				<path class="st0" d="M968.63,1678.34v-462.46c-31.88,2.24-98.41,10.5-127.51,16.14v47.47c9.7,8.67,18.02,13.12,30.03,18.75
					v468.93c50.36-3.53,97.02-13.28,127.97-31.28v-48.19C986.64,1685.71,978.79,1683.38,968.63,1678.34z"/>
				<path class="st0" d="M1068.41,1348.41c32.34-2.27,59.6-29.35,59.6-87.61c0-41.72-16.17-72.95-51.74-70.45
					c-36.96,2.59-59.14,37.95-59.14,86.86C1017.13,1328.99,1039.3,1350.45,1068.41,1348.41z"/>
				<path class="st0" d="M1128.01,1372.99c-38.81,2-105.8,10.3-127.05,16.11v47.47c7.39,8.83,17.1,14.62,29.57,18.78
					c0,0-0.46,266.14,0.46,300.6c50.82-3.57,96.56-12.53,127.51-30.53v-48.91c-12.48-2-20.33-4.33-30.5-8.65V1372.99z"/>
				<path class="st0" d="M1417.67,1502.98c11.55,10.7,23.56,17.76,36.5,22.61v110.76c-4.62,5.36-10.16,9.34-19.4,9.99
					c-36.5,2.56-51.28-61.13-51.28-151.75c0-130.9,7.86-194.74,53.59-197.95c13.4-0.94,27.72,0.93,39.27,6.59
					c3.23,21.35,10.16,48.91,18.94,67l48.51-3.4c2.31-39,4.16-101.7,4.16-144.14c-30.95-11.49-66.99-15.44-98.4-13.23
					c-117.81,8.27-167.71,108.86-167.71,301.62c0,148.16,39.27,228.11,142.3,220.88c39.74-2.79,98.41-27.77,127.05-58.54v-154.63
					c10.16-7.19,18.94-15.71,25.41-26.96v-53.94l-158.93,11.15V1502.98z"/>
				<path class="st0" d="M1861.18,1453.87v-133.06c-38.81,2.72-105.8,10.3-127.05,16.11v47.47c7.85,8.8,17.09,14.62,29.57,18.78
					v24.45c2.31,69.6-25.87,184.5-39.27,185.44c-10.16,0.71-10.62-23.71-10.62-39.53v-242.38c-38.81,2.72-105.8,10.3-127.05,16.11
					v47.47c6.93,8.14,17.09,14.62,29.57,18.78v181.24c0,74.08,14.78,121.23,55.9,118.34c59.14-4.15,81.31-61.09,103.03-139.57
					l3.24,1.93c-6.47,24.19-18.02,73.19-18.02,110.59v18.7c50.82-3.57,96.1-13.22,127.05-31.93v-47.47
					c-12.48-2-18.94-4.43-30.5-9.37C1859.33,1575.55,1861.18,1515.72,1861.18,1453.87z"/>
				<path class="st0" d="M2017.34,1310.57c-38.81,2-105.8,10.3-127.05,16.11v47.47c7.39,8.83,17.09,14.62,29.57,18.78
					c0,0-0.46,266.14,0.46,300.6c50.82-3.57,96.56-12.53,127.51-30.53v-48.91c-12.47-2-20.33-4.33-30.49-8.65V1310.57z"/>
				<path class="st0" d="M1957.74,1285.99c32.34-2.27,59.6-29.35,59.6-87.61c0-41.72-16.17-72.94-51.74-70.45
					c-36.96,2.59-59.14,37.95-59.14,86.86C1906.46,1266.57,1928.63,1288.03,1957.74,1285.99z"/>
				<path class="st0" d="M2319.48,1583.53v-462.46c-31.42,2.2-97.94,10.47-127.05,16.11v47.47c10.62,8.6,14.32,12.66,29.57,18.78
					v87.75l-10.17,0.71c-106.72,7.49-145.53,110.19-145.53,256.91c0,58.98,19.86,138.85,58.67,136.13
					c36.96-2.59,59.14-23.57,77.16-60.79c12.01-24.58,18.48-42.29,30.03-77.63l1.85,1.31c-6.46,28.5-11.09,61.19-11.09,99.31v25.17
					c51.28-3.6,97.02-14,127.05-31.93v-48.19C2337.49,1590.18,2330.1,1588.54,2319.48,1583.53z M2222,1448.68
					c0,33.8-37.89,144.35-47.59,145.03c-8.78,0.62-8.32-49.76-8.32-64.87c0-88.46-0.46-156.04,28.64-158.08
					c12.01-0.84,21.25,1.38,27.26,7.44V1448.68z"/>
				<path class="st0" d="M2509.82,1578.08c-27.72,1.95-46.2-17.61-46.2-74.43v-8.63l113.65-9.42
					c11.55-38.21,18.94-81.88,18.94-119.28c0-63.29-29.57-98.62-83.62-94.82c-89.17,6.26-146.92,84.39-146.92,231.83
					c0,121.55,41.12,161.81,120.12,156.27c43.43-3.05,79-26.4,106.26-56.36l-11.09-56.76
					C2558.79,1563.14,2533.38,1576.43,2509.82,1578.08z M2488.57,1349.42c9.7-0.68,12.01,13.54,12.01,28.64
					c0,16.54-4.16,37.69-8.32,49.49l-27.26,4.79C2465.93,1381.22,2471.93,1350.59,2488.57,1349.42z"/>
			</g>
			<g>
				<path class="st0" d="M484.98,1492.51v-2.88c25.87-15.48,52.67-66.27,52.67-111.58c0-87.03-48.05-100.92-123.36-95.63
					l-146.45,10.28v46.75c7.85,10.96,17.55,21.06,31.88,27.97v349.54c-12.01,6.6-23.1,18.16-31.88,32.44v46.75l133.52-9.37
					c88.7-6.23,146.45-73.57,146.45-185.77C547.81,1537.72,527.03,1496.03,484.98,1492.51z M398.59,1359.76l6.47-0.45
					c19.4-1.36,30.96,14.37,30.96,43.14c0,35.24-7.39,83.23-26.8,84.59l-10.62,0.75V1359.76z M411.99,1706.92
					c-3.7,0.26-7.39-0.2-13.4-1.22V1566.9l4.62-0.32c38.81-2.72,42.96,14.96,42.96,60.27
					C446.17,1681.51,435.55,1705.27,411.99,1706.92z"/>
				<path class="st0" d="M803.3,1681.62c-3.7-35.7,1.38-114.45,1.38-179.9c0-92.78-41.58-116.47-104.41-112.06
					c-45.74,3.21-88.24,22.02-116.42,44.85c0.46,38.09,2.31,72.48,5.08,103.21l48.97-12.07c4.16-14.68,6.93-29.26,10.17-46.74
					c9.7-5,21.71-9.43,32.34-10.18c21.72-1.52,31.42,14.34,31.42,57.49v12.95c-78.54,5.51-138.14,34.87-138.14,142.75
					c0,54.66,12.47,102.69,47.12,100.26c22.18-1.56,52.67-21.68,76.23-60.01c9.7-15.79,13.86-23.99,22.18-44.71l1.85,1.31
					c-4.16,13.24-9.7,38.08-9.7,63.97c0,8.63,0,16.54,0.92,27.26c53.13-3.73,91.02-12.86,120.58-30.76v-48.19
					C820.4,1689.05,812.54,1686,803.3,1681.62z M711.82,1613.96c-14.32,40.56-30.03,68.99-36.5,69.45
					c-2.77,0.19-4.62-15.5-4.62-37.79c0-32.36,6.47-47.92,41.12-45.32V1613.96z"/>
				<path class="st0" d="M960.84,1670.56V1208.1c-31.88,2.24-98.41,10.5-127.51,16.14v47.47c9.7,8.67,18.02,13.12,30.03,18.75
					v468.93c50.36-3.53,97.02-13.28,127.97-31.28v-48.19C978.86,1677.93,971,1675.6,960.84,1670.56z"/>
				<path class="st0" d="M1060.63,1340.63c32.34-2.27,59.6-29.35,59.6-87.61c0-41.72-16.17-72.95-51.74-70.45
					c-36.96,2.59-59.14,37.95-59.14,86.86C1009.34,1321.21,1031.52,1342.67,1060.63,1340.63z"/>
				<path class="st0" d="M1120.22,1365.21c-38.81,2-105.8,10.3-127.05,16.11v47.47c7.39,8.83,17.1,14.62,29.57,18.78
					c0,0-0.46,266.14,0.46,300.6c50.82-3.57,96.56-12.53,127.51-30.53v-48.91c-12.48-2-20.33-4.33-30.5-8.65V1365.21z"/>
				<path class="st0" d="M1409.89,1495.2c11.55,10.7,23.56,17.76,36.5,22.61v110.76c-4.62,5.36-10.16,9.34-19.4,9.99
					c-36.5,2.56-51.28-61.13-51.28-151.75c0-130.9,7.86-194.74,53.59-197.95c13.4-0.94,27.72,0.93,39.27,6.59
					c3.23,21.35,10.16,48.91,18.94,67l48.51-3.4c2.31-39,4.16-101.7,4.16-144.14c-30.95-11.49-66.99-15.44-98.4-13.23
					c-117.81,8.27-167.71,108.86-167.71,301.62c0,148.16,39.27,228.11,142.3,220.88c39.74-2.79,98.41-27.77,127.05-58.54V1511
					c10.16-7.19,18.94-15.71,25.41-26.96v-53.94l-158.93,11.15V1495.2z"/>
				<path class="st0" d="M1853.4,1446.09v-133.06c-38.81,2.72-105.8,10.3-127.05,16.11v47.47c7.85,8.8,17.09,14.62,29.57,18.78
					v24.45c2.31,69.6-25.87,184.5-39.27,185.44c-10.16,0.71-10.62-23.71-10.62-39.53v-242.38c-38.81,2.72-105.8,10.3-127.05,16.11
					v47.47c6.93,8.14,17.09,14.62,29.57,18.78v181.24c0,74.08,14.78,121.23,55.9,118.34c59.14-4.15,81.31-61.09,103.03-139.57
					l3.24,1.93c-6.47,24.19-18.02,73.19-18.02,110.59v18.7c50.82-3.57,96.1-13.22,127.05-31.93v-47.47
					c-12.48-2-18.94-4.43-30.5-9.37C1851.55,1567.77,1853.4,1507.94,1853.4,1446.09z"/>
				<path class="st0" d="M2009.56,1302.79c-38.81,2-105.8,10.3-127.05,16.11v47.47c7.39,8.83,17.09,14.62,29.57,18.78
					c0,0-0.46,266.14,0.46,300.6c50.82-3.57,96.56-12.53,127.51-30.53v-48.91c-12.47-2-20.33-4.33-30.49-8.65V1302.79z"/>
				<path class="st0" d="M1949.96,1278.21c32.34-2.27,59.6-29.35,59.6-87.61c0-41.72-16.17-72.94-51.74-70.45
					c-36.96,2.59-59.14,37.95-59.14,86.86C1898.68,1258.79,1920.85,1280.25,1949.96,1278.21z"/>
				<path class="st0" d="M2311.7,1575.75v-462.46c-31.42,2.2-97.94,10.47-127.05,16.11v47.47c10.62,8.6,14.32,12.66,29.57,18.78
					v87.75l-10.17,0.71c-106.72,7.49-145.53,110.19-145.53,256.91c0,58.98,19.86,138.85,58.67,136.13
					c36.96-2.59,59.14-23.57,77.16-60.79c12.01-24.58,18.48-42.29,30.03-77.63l1.85,1.31c-6.46,28.5-11.09,61.19-11.09,99.31v25.17
					c51.28-3.6,97.02-14,127.05-31.93v-48.19C2329.71,1582.39,2322.32,1580.75,2311.7,1575.75z M2214.22,1440.9
					c0,33.8-37.89,144.35-47.59,145.03c-8.78,0.62-8.32-49.76-8.32-64.87c0-88.46-0.46-156.04,28.64-158.08
					c12.01-0.84,21.25,1.38,27.26,7.44V1440.9z"/>
				<path class="st0" d="M2502.04,1570.3c-27.72,1.95-46.2-17.61-46.2-74.43v-8.63l113.65-9.42
					c11.55-38.21,18.94-81.88,18.94-119.28c0-63.29-29.57-98.62-83.62-94.82c-89.17,6.26-146.92,84.39-146.92,231.83
					c0,121.55,41.12,161.81,120.12,156.27c43.43-3.05,79-26.4,106.26-56.36l-11.09-56.76
					C2551.01,1555.35,2525.6,1568.64,2502.04,1570.3z M2480.78,1341.64c9.7-0.68,12.01,13.54,12.01,28.64
					c0,16.54-4.16,37.69-8.32,49.49l-27.26,4.79C2458.15,1373.44,2464.15,1342.81,2480.78,1341.64z"/>
			</g>
			<g>
				<path class="st0" d="M477.2,1484.73v-2.88c25.87-15.48,52.67-66.27,52.67-111.58c0-87.03-48.05-100.92-123.36-95.63
					l-146.45,10.28v46.75c7.85,10.96,17.55,21.06,31.88,27.97v349.54c-12.01,6.6-23.1,18.16-31.88,32.44v46.75l133.52-9.37
					c88.7-6.23,146.45-73.57,146.45-185.77C540.03,1529.94,519.24,1488.25,477.2,1484.73z M390.81,1351.98l6.47-0.45
					c19.4-1.36,30.96,14.37,30.96,43.14c0,35.24-7.39,83.23-26.8,84.59l-10.62,0.75V1351.98z M404.21,1699.14
					c-3.7,0.26-7.39-0.2-13.4-1.22v-138.81l4.62-0.32c38.81-2.72,42.96,14.96,42.96,60.27
					C438.39,1673.73,427.77,1697.49,404.21,1699.14z"/>
				<path class="st0" d="M795.52,1673.84c-3.7-35.7,1.38-114.45,1.38-179.9c0-92.78-41.58-116.47-104.41-112.06
					c-45.74,3.21-88.24,22.02-116.42,44.85c0.46,38.09,2.31,72.48,5.08,103.21l48.97-12.07c4.16-14.68,6.93-29.26,10.17-46.74
					c9.7-5,21.71-9.44,32.34-10.18c21.72-1.52,31.42,14.34,31.42,57.49v12.95c-78.54,5.51-138.14,34.87-138.14,142.75
					c0,54.66,12.47,102.69,47.12,100.26c22.18-1.56,52.67-21.68,76.23-60.01c9.7-15.79,13.86-23.99,22.18-44.71l1.85,1.31
					c-4.16,13.24-9.7,38.08-9.7,63.97c0,8.63,0,16.54,0.92,27.26c53.13-3.73,91.02-12.86,120.58-30.76v-48.19
					C812.62,1681.27,804.76,1678.22,795.52,1673.84z M704.04,1606.18c-14.32,40.56-30.03,68.99-36.5,69.45
					c-2.77,0.19-4.62-15.5-4.62-37.79c0-32.36,6.47-47.92,41.12-45.32V1606.18z"/>
				<path class="st0" d="M953.06,1662.78v-462.46c-31.88,2.24-98.41,10.5-127.51,16.14v47.47c9.7,8.67,18.02,13.12,30.03,18.75
					v468.93c50.36-3.53,97.02-13.28,127.97-31.28v-48.19C971.08,1670.14,963.22,1667.82,953.06,1662.78z"/>
				<path class="st0" d="M1052.85,1332.84c32.34-2.27,59.6-29.35,59.6-87.61c0-41.72-16.17-72.95-51.74-70.45
					c-36.96,2.59-59.14,37.95-59.14,86.86C1001.56,1313.43,1023.74,1334.89,1052.85,1332.84z"/>
				<path class="st0" d="M1112.44,1357.43c-38.81,2-105.8,10.3-127.05,16.11v47.47c7.39,8.83,17.1,14.62,29.57,18.78
					c0,0-0.46,266.14,0.46,300.6c50.82-3.57,96.56-12.53,127.51-30.53v-48.91c-12.48-2-20.33-4.33-30.5-8.65V1357.43z"/>
				<path class="st0" d="M1402.11,1487.42c11.55,10.7,23.56,17.76,36.5,22.61v110.76c-4.62,5.36-10.16,9.34-19.4,9.99
					c-36.5,2.56-51.28-61.13-51.28-151.75c0-130.9,7.86-194.74,53.59-197.95c13.4-0.94,27.72,0.93,39.27,6.59
					c3.23,21.35,10.16,48.91,18.94,67l48.51-3.4c2.31-39,4.16-101.7,4.16-144.14c-30.95-11.49-66.99-15.44-98.4-13.23
					c-117.81,8.27-167.71,108.86-167.71,301.62c0,148.16,39.27,228.11,142.3,220.88c39.74-2.79,98.41-27.77,127.05-58.54v-154.63
					c10.16-7.19,18.94-15.71,25.41-26.96v-53.94l-158.93,11.15V1487.42z"/>
				<path class="st0" d="M1845.62,1438.31v-133.06c-38.81,2.72-105.8,10.3-127.05,16.11v47.47c7.85,8.8,17.09,14.62,29.57,18.78
					v24.45c2.31,69.6-25.87,184.5-39.27,185.44c-10.16,0.71-10.62-23.71-10.62-39.53V1315.6c-38.81,2.72-105.8,10.3-127.05,16.11
					v47.47c6.93,8.14,17.09,14.62,29.57,18.78v181.24c0,74.08,14.78,121.23,55.9,118.34c59.14-4.15,81.31-61.09,103.03-139.57
					l3.24,1.93c-6.47,24.19-18.02,73.19-18.02,110.59v18.7c50.82-3.57,96.1-13.22,127.05-31.93v-47.47
					c-12.48-2-18.94-4.43-30.5-9.37C1843.77,1559.98,1845.62,1500.16,1845.62,1438.31z"/>
				<path class="st0" d="M2001.78,1295.01c-38.81,2-105.8,10.3-127.05,16.11v47.47c7.39,8.83,17.09,14.62,29.57,18.78
					c0,0-0.46,266.14,0.46,300.6c50.82-3.57,96.56-12.53,127.51-30.53v-48.91c-12.47-2-20.33-4.33-30.49-8.65V1295.01z"/>
				<path class="st0" d="M1942.18,1270.42c32.34-2.27,59.6-29.35,59.6-87.61c0-41.72-16.17-72.94-51.74-70.45
					c-36.96,2.59-59.14,37.95-59.14,86.86C1890.9,1251.01,1913.07,1272.47,1942.18,1270.42z"/>
				<path class="st0" d="M2303.92,1567.97v-462.46c-31.42,2.21-97.94,10.47-127.05,16.11v47.47c10.62,8.6,14.32,12.66,29.57,18.78
					v87.75l-10.17,0.71c-106.72,7.49-145.53,110.19-145.53,256.91c0,58.98,19.86,138.85,58.67,136.13
					c36.96-2.59,59.14-23.57,77.16-60.79c12.01-24.58,18.48-42.29,30.03-77.63l1.85,1.31c-6.46,28.5-11.09,61.19-11.09,99.31v25.17
					c51.28-3.6,97.02-14,127.05-31.93v-48.19C2321.93,1574.61,2314.54,1572.97,2303.92,1567.97z M2206.44,1433.12
					c0,33.8-37.89,144.35-47.59,145.03c-8.78,0.62-8.32-49.76-8.32-64.87c0-88.46-0.46-156.04,28.64-158.08
					c12.01-0.84,21.25,1.38,27.26,7.44V1433.12z"/>
				<path class="st0" d="M2494.26,1562.52c-27.72,1.95-46.2-17.61-46.2-74.43v-8.63l113.65-9.42
					c11.55-38.21,18.94-81.88,18.94-119.28c0-63.29-29.57-98.62-83.62-94.82c-89.17,6.26-146.92,84.39-146.92,231.83
					c0,121.55,41.12,161.81,120.12,156.27c43.43-3.05,79-26.4,106.26-56.36l-11.09-56.76
					C2543.23,1547.57,2517.82,1560.86,2494.26,1562.52z M2473,1333.86c9.7-0.68,12.01,13.54,12.01,28.64
					c0,16.54-4.16,37.69-8.32,49.49l-27.26,4.79C2450.36,1365.66,2456.37,1335.03,2473,1333.86z"/>
			</g>
		</g>
		<g>
			<path class="st6" d="M477.2,1484.73v-2.88c25.87-15.48,52.67-66.27,52.67-111.58c0-87.03-48.05-100.92-123.36-95.63
				l-146.45,10.28v46.75c7.85,10.96,17.55,21.06,31.88,27.97v349.54c-12.01,6.6-23.1,18.16-31.88,32.44v46.75l133.52-9.37
				c88.7-6.23,146.45-73.57,146.45-185.77C540.03,1529.94,519.24,1488.25,477.2,1484.73z M390.81,1351.98l6.47-0.45
				c19.4-1.36,30.96,14.37,30.96,43.14c0,35.24-7.39,83.23-26.8,84.59l-10.62,0.75V1351.98z M404.21,1699.14
				c-3.7,0.26-7.39-0.2-13.4-1.22v-138.81l4.62-0.32c38.81-2.72,42.96,14.96,42.96,60.27
				C438.39,1673.73,427.77,1697.49,404.21,1699.14z"/>
			<path class="st6" d="M795.52,1673.84c-3.7-35.7,1.38-114.45,1.38-179.9c0-92.78-41.58-116.47-104.41-112.06
				c-45.74,3.21-88.24,22.02-116.42,44.85c0.46,38.09,2.31,72.48,5.08,103.21l48.97-12.07c4.16-14.68,6.93-29.26,10.17-46.74
				c9.7-5,21.71-9.44,32.34-10.18c21.72-1.52,31.42,14.34,31.42,57.49v12.95c-78.54,5.51-138.14,34.87-138.14,142.75
				c0,54.66,12.47,102.69,47.12,100.26c22.18-1.56,52.67-21.68,76.23-60.01c9.7-15.79,13.86-23.99,22.18-44.71l1.85,1.31
				c-4.16,13.24-9.7,38.08-9.7,63.97c0,8.63,0,16.54,0.92,27.26c53.13-3.73,91.02-12.86,120.58-30.76v-48.19
				C812.62,1681.27,804.76,1678.22,795.52,1673.84z M704.04,1606.18c-14.32,40.56-30.03,68.99-36.5,69.45
				c-2.77,0.19-4.62-15.5-4.62-37.79c0-32.36,6.47-47.92,41.12-45.32V1606.18z"/>
			<path class="st6" d="M953.06,1662.78v-462.46c-31.88,2.24-98.41,10.5-127.51,16.14v47.47c9.7,8.67,18.02,13.12,30.03,18.75
				v468.93c50.36-3.53,97.02-13.28,127.97-31.28v-48.19C971.08,1670.14,963.22,1667.82,953.06,1662.78z"/>
			<path class="st6" d="M1052.85,1332.84c32.34-2.27,59.6-29.35,59.6-87.61c0-41.72-16.17-72.95-51.74-70.45
				c-36.96,2.59-59.14,37.95-59.14,86.86C1001.56,1313.43,1023.74,1334.89,1052.85,1332.84z"/>
			<path class="st6" d="M1112.44,1357.43c-38.81,2-105.8,10.3-127.05,16.11v47.47c7.39,8.83,17.1,14.62,29.57,18.78
				c0,0-0.46,266.14,0.46,300.6c50.82-3.57,96.56-12.53,127.51-30.53v-48.91c-12.48-2-20.33-4.33-30.5-8.65V1357.43z"/>
			<path class="st6" d="M1402.11,1487.42c11.55,10.7,23.56,17.76,36.5,22.61v110.76c-4.62,5.36-10.16,9.34-19.4,9.99
				c-36.5,2.56-51.28-61.13-51.28-151.75c0-130.9,7.86-194.74,53.59-197.95c13.4-0.94,27.72,0.93,39.27,6.59
				c3.23,21.35,10.16,48.91,18.94,67l48.51-3.4c2.31-39,4.16-101.7,4.16-144.14c-30.95-11.49-66.99-15.44-98.4-13.23
				c-117.81,8.27-167.71,108.86-167.71,301.62c0,148.16,39.27,228.11,142.3,220.88c39.74-2.79,98.41-27.77,127.05-58.54v-154.63
				c10.16-7.19,18.94-15.71,25.41-26.96v-53.94l-158.93,11.15V1487.42z"/>
			<path class="st6" d="M1845.62,1438.31v-133.06c-38.81,2.72-105.8,10.3-127.05,16.11v47.47c7.85,8.8,17.09,14.62,29.57,18.78
				v24.45c2.31,69.6-25.87,184.5-39.27,185.44c-10.16,0.71-10.62-23.71-10.62-39.53V1315.6c-38.81,2.72-105.8,10.3-127.05,16.11
				v47.47c6.93,8.14,17.09,14.62,29.57,18.78v181.24c0,74.08,14.78,121.23,55.9,118.34c59.14-4.15,81.31-61.09,103.03-139.57
				l3.24,1.93c-6.47,24.19-18.02,73.19-18.02,110.59v18.7c50.82-3.57,96.1-13.22,127.05-31.93v-47.47c-12.48-2-18.94-4.43-30.5-9.37
				C1843.77,1559.98,1845.62,1500.16,1845.62,1438.31z"/>
			<path class="st6" d="M2001.78,1295.01c-38.81,2-105.8,10.3-127.05,16.11v47.47c7.39,8.83,17.09,14.62,29.57,18.78
				c0,0-0.46,266.14,0.46,300.6c50.82-3.57,96.56-12.53,127.51-30.53v-48.91c-12.47-2-20.33-4.33-30.49-8.65V1295.01z"/>
			<path class="st6" d="M1942.18,1270.42c32.34-2.27,59.6-29.35,59.6-87.61c0-41.72-16.17-72.94-51.74-70.45
				c-36.96,2.59-59.14,37.95-59.14,86.86C1890.9,1251.01,1913.07,1272.47,1942.18,1270.42z"/>
			<path class="st6" d="M2303.92,1567.97v-462.46c-31.42,2.21-97.94,10.47-127.05,16.11v47.47c10.62,8.6,14.32,12.66,29.57,18.78
				v87.75l-10.17,0.71c-106.72,7.49-145.53,110.19-145.53,256.91c0,58.98,19.86,138.85,58.67,136.13
				c36.96-2.59,59.14-23.57,77.16-60.79c12.01-24.58,18.48-42.29,30.03-77.63l1.85,1.31c-6.46,28.5-11.09,61.19-11.09,99.31v25.17
				c51.28-3.6,97.02-14,127.05-31.93v-48.19C2321.93,1574.61,2314.54,1572.97,2303.92,1567.97z M2206.44,1433.12
				c0,33.8-37.89,144.35-47.59,145.03c-8.78,0.62-8.32-49.76-8.32-64.87c0-88.46-0.46-156.04,28.64-158.08
				c12.01-0.84,21.25,1.38,27.26,7.44V1433.12z"/>
			<path class="st6" d="M2494.26,1562.52c-27.72,1.95-46.2-17.61-46.2-74.43v-8.63l113.65-9.42
				c11.55-38.21,18.94-81.88,18.94-119.28c0-63.29-29.57-98.62-83.62-94.82c-89.17,6.26-146.92,84.39-146.92,231.83
				c0,121.55,41.12,161.81,120.12,156.27c43.43-3.05,79-26.4,106.26-56.36l-11.09-56.76
				C2543.23,1547.57,2517.82,1560.86,2494.26,1562.52z M2473,1333.86c9.7-0.68,12.01,13.54,12.01,28.64
				c0,16.54-4.16,37.69-8.32,49.49l-27.26,4.79C2450.36,1365.66,2456.37,1335.03,2473,1333.86z"/>
		</g>
	</g>
	<text transform="matrix(0.9594 -0.1405 0 1 1057.0212 2044.8593)" class="st7 st8 st9">CLAIRE TOKLEY</text>
	<text transform="matrix(0.9594 -0.1405 0 1 1266.299 1912.8269)" class="st7 st8 st9">BY</text>
</g>
<g id="Layer_3">
</g>
<g id="Layer_2">
</g>
</svg>
